<?xml version="1.0" encoding="utf-8"?>
<!-- Generator: Adobe Illustrator 21.0.0, SVG Export Plug-In . SVG Version: 6.00 Build 0)  -->
<svg version="1.1" id="Layer_1" xmlns="http://www.w3.org/2000/svg" xmlns:xlink="http://www.w3.org/1999/xlink" x="0px" y="0px"
	 viewBox="0 0 392 436.9" style="enable-background:new 0 0 392 436.9;" xml:space="preserve">
<style type="text/css">
	.st0{display:none;}
	.st1{display:inline;fill:#FFFFFF;}
	.st2{fill:#F76D50;stroke:#FFFFFF;stroke-width:4;stroke-miterlimit:10;}
	.st3{fill:#F2D9C4;}
	.st4{fill:#E8E8E6;}
	.st5{fill:#666666;}
	.st6{fill:#F2F2F2;}
	.st7{fill:#F6F6F6;}
	.st8{fill:#F5E0CD;}
	.st9{fill:#998675;}
	.st10{fill:#FFCCDB;}
	.st11{fill:#DD5B68;}
	.st12{fill:#736357;}
	.st13{fill:#EDB0B0;}
</style>
<g id="BACKGROUND" class="st0">
	<rect x="-54" y="-25" class="st1" width="500" height="500"/>
</g>
<g id="OBJECTS">
	<circle class="st2" cx="195" cy="228.1" r="188.5"/>
	<g>
		<g>
			<g>
				<path class="st3" d="M184.3,113.2c0,0-2.2,8.1-0.1,9.2c2.1,1.1,45.2,5.8,45.2,7.1s-7.5,23.7-6.4,28.8s12.5,49.2,12.5,49.2
					l-89,5.8l-16-48.1l-18.9-27.7l37.7-13.1c0,0,6-13.1,4.3-13.3"/>
			</g>
			<g>
				<polygon class="st4" points="147.4,217.4 135.3,401 155.3,401 182.1,311.9 199.1,226.6 				"/>
				<polygon class="st4" points="235.5,218.9 252.1,402 232.2,402 205.4,313.6 188.4,228.3 				"/>
				<path class="st5" d="M250.9,399.9c0,0,12.1,16.5,16.8,17.5c4.7,1,9.6,3.7,9.4,7.2c-0.3,6.2,0.2,12.2-12.7,12.2
					c-16.6,0-19.5-1.1-21.8-13.9c0,0-3.4,0.4-3.7,1.9c-0.6,2.9,1.2,5.5,0.5,8.4c-0.7,2.8-3.9,1-3.9,1s-1.5-5.8-3.3-11.5
					s-1.1-21.3-1.1-21.3L250.9,399.9z"/>
				<path class="st5" d="M136.4,396.9c0,0-11.5,16.9-16.2,18.1s-9.5,4-9.2,7.6c0.5,6.2,0.2,12.2,13.1,11.8
					c16.6-0.5,19.4-1.8,21.3-14.7c0,0,3.4,0.3,3.8,1.7c0.7,2.9-1,5.5-0.2,8.4c0.8,2.8,3.9,0.9,3.9,0.9s1.3-5.9,2.9-11.6
					c1.6-5.8,0.4-21.3,0.4-21.3L136.4,396.9z"/>
			</g>
			<g>
				<path class="st4" d="M183.8,117.4c0,0-12.3,4.6-12,6.8c0.2,2.1,0.6,7.1,0.6,7.1l19.2,82.5c0,0,44.8-2.1,44.8-7.6
					S224,156.4,224,156.4l7.4-28.1l-42.2-6.2C189.2,122.2,182.8,121.7,183.8,117.4z"/>
				<path class="st6" d="M150.9,117.9c0,0,20.1,4.2,21.2,7.2c1.1,3,1.7,6.5,1.7,6.5s35.6,3.8,38.6,6.6s11.3,69.6,10.6,73.1
					c-0.6,3.5-67.7,12.6-76.7,6.2l-15.8-49.6l-18.1-31.6c0,0,32.7-9.2,35.9-12.8C151.7,119.8,150.9,117.9,150.9,117.9z"/>
				<g>
					
						<ellipse transform="matrix(0.9965 -8.314294e-02 8.314294e-02 0.9965 -12.0339 17.4163)" class="st5" cx="203.1" cy="153.2" rx="3.6" ry="3.6"/>
					
						<ellipse transform="matrix(0.951 -0.3093 0.3093 0.951 -41.792 56.9792)" class="st5" cx="158.8" cy="160.3" rx="3.6" ry="3.6"/>
					
						<ellipse transform="matrix(0.9965 -8.313152e-02 8.313152e-02 0.9965 -13.5067 17.5999)" class="st5" cx="204.6" cy="171" rx="3.6" ry="3.6"/>
					
						<ellipse transform="matrix(0.951 -0.3092 0.3092 0.951 -46.7736 59.491)" class="st5" cx="164.3" cy="177.3" rx="3.6" ry="3.6"/>
					
						<ellipse transform="matrix(0.9965 -8.314294e-02 8.314294e-02 0.9965 -14.9831 17.7886)" class="st5" cx="206.1" cy="188.8" rx="3.6" ry="3.6"/>
					
						<ellipse transform="matrix(0.951 -0.3092 0.3092 0.951 -51.7478 62.0533)" class="st5" cx="169.9" cy="194.3" rx="3.6" ry="3.6"/>
				</g>
			</g>
			<path class="st4" d="M231.4,128.3l30.9,31.6c0,0-18.3,21.2-23,21.2s-18.3-23-18.3-23L231.4,128.3z"/>
			<g>
				<path class="st7" d="M236.4,208.2c8.1,6.3,12.9,23.2,16.2,32.9c4.3,13.9,8.1,28.2,13.4,42.2c5.3,13.5,13.8,26.1,19.6,39.2
					c-16.2,9.3-46.3,10.1-65.4,13.5c-20,3.8-49.2,22.3-69.2,12.6c-8.6-4.2-4.3-9.3-2.9-16.9c3.3-13.1,7.6-27,8.6-40.5
					c2.4-24.5-5.7-46.4-9.1-70c-0.5-2.1-0.5-4.2-0.5-6.7"/>
			</g>
			<path class="st6" d="M111.8,136.5c0,0-15.3,46.7-6.9,54.4c4.2,3.8,30-1.2,30-1.2l-0.3-25.7C134.6,164,116.8,135,111.8,136.5z"/>
		</g>
		<g>
			<path class="st3" d="M133.9,185.3l6.9,28.5l60.5,2l7.5,6.4c0,0-71.5,19.6-85.5,7.5c-6.3-5.4-20.4-47-20.4-47L133.9,185.3z"/>
			<ellipse class="st8" cx="210" cy="219.1" rx="15.7" ry="6.6"/>
		</g>
		<g>
			<ellipse class="st4" cx="219.4" cy="206.6" rx="51.5" ry="13.5"/>
			<ellipse class="st7" cx="218.7" cy="205.7" rx="39.3" ry="10.9"/>
			<g>
				<g>
					<polygon class="st9" points="250.9,192.7 249.4,209.2 190.5,210.5 191.1,200.4 250.8,192.3 					"/>
					<polyline class="st10" points="251,189.8 224.9,185.8 191.1,200.4 250.8,192.3 					"/>
					
						<ellipse transform="matrix(3.458088e-02 -0.9994 0.9994 3.458088e-02 20.6025 402.8288)" class="st11" cx="218.8" cy="190.8" rx="3.7" ry="3.7"/>
					
						<ellipse transform="matrix(3.447651e-02 -0.9994 0.9994 3.447651e-02 23.3102 409.3606)" class="st12" cx="223.5" cy="192.6" rx="1.1" ry="1.1"/>
					
						<ellipse transform="matrix(3.444536e-02 -0.9994 0.9994 3.444536e-02 13.3313 401.0013)" class="st12" cx="214.2" cy="193.6" rx="1.1" ry="1.1"/>
				</g>
				<polygon class="st10" points="250.4,200.3 250.1,203.5 190.9,206.5 191,204.5 				"/>
			</g>
		</g>
		<g>
			<path class="st8" d="M250,154.3l20.7,21.9l10.1-34.1l11.6,2.7c0,0-1.2,55.4-11.4,59.9c-9.5,4.2-48.9-34.8-48.9-34.8L250,154.3z"
				/>
			<g>
				<path class="st8" d="M307.7,118.2c-1.6,0.1-3.8,4.7-4.3,6.9c-0.4,1.9-2.1,5.8-2.9,7.6c-0.1-0.1-0.2-0.2-0.3-0.3
					c0.1-0.5,0.3-1.1,0.4-1.6c0.8-3.1,1.9-5.8,3.1-8.8c0.7-1.7,4.6-11.2,1.1-11.2c-2.7,0-4.7,6.8-5.2,9c-0.7,3.2-2.2,6.2-3.6,8.9
					v0.1c-0.2-0.1-0.3-0.2-0.5-0.3c0.1-0.3,0.2-0.5,0.3-0.9c0.5-3,1.1-6.4,2.4-9.3c0.9-2,3.4-8.7,1.2-10.3c-2.8-2.1-5.3,7.9-5.8,9.7
					c-0.8,3.1-1.5,6-2.7,8.9c0,0.1-0.1,0.1-0.1,0.2c-0.4-0.1-0.8-0.1-1.2-0.1c0.4-2.7,1-5.6,2.2-8.2c0.9-2,3.4-8.7,1.2-10.3
					c-2.8-2.1-5.3,7.9-5.8,9.7c-0.8,3.1-1.5,6-2.7,8.9c-0.3,0.7-0.6,1.4-0.9,2.1c-1.1,1.1-2.2,2.6-3.2,4.2c-0.5-1-0.9-1.9-1.1-2.9
					c-0.4-1.6-1.4-4.9-4.5-5.5c-3.9-0.8-1.6,5.7-0.9,7c1.2,2.3,2.4,4.4,3.1,6.8c0.3,0.9,0.6,1.9,1.1,2.9c0.1,0.9,0.4,1.9,0.7,2.7
					c0.5,1.4,1.5,2.7,1.6,4.2l3.1,0.8c0.9,0.1,5.6,2,6.6,2c1.2-0.1,5.1-0.9,9.5-6.4c1.9-1.4,3.1-4.2,3.7-6.5
					c0.8-3.1,1.9-5.8,3.1-8.7C307.2,127.7,311.1,118,307.7,118.2z"/>
			</g>
		</g>
		<g>
			<circle class="st12" cx="169.9" cy="59.6" r="53.5"/>
			
				<ellipse transform="matrix(0.4425 -0.8968 0.8968 0.4425 -22.5966 164.9801)" class="st12" cx="121.4" cy="100.7" rx="21" ry="19.9"/>
			<path class="st3" d="M122.9,65.8c0,0-5.6,1.2-4.5,6.4c1.1,5.2,4,18,8.6,17.5c3.3-0.4,3.9-0.8,3.9-0.8L122.9,65.8z"/>
			<path class="st3" d="M216.1,70.8c0,0,5.6,1.2,4.5,6.4c-1.1,5.2-4,18-8.6,17.5c-3.3-0.4-3.9-0.8-3.9-0.8L216.1,70.8z"/>
			<path class="st8" d="M218.7,58.6c0,31.6-21.6,57.2-48.3,57.2s-48.3-25.6-48.3-57.2s23.3-51.2,50-51.2S218.7,27,218.7,58.6z"/>
			<path class="st12" d="M121.8,65.2c0,0,47.8,6.5,60.2-19.1c0,0,24.2,30.3,36.4,25.6c0,0,9.6-54.6-34.2-63.7S115.1,37.2,121.8,65.2
				z"/>
			<path class="st3" d="M172.8,72.8c0,0,5.4,15.3,2.4,18.3s-6.2-0.5-6.2-0.5s2.7-6.7,3-10.3C172.3,76.9,172.8,72.8,172.8,72.8z"/>
			<path class="st13" d="M179.3,99.1c0,4.7-3.5,8.5-7.9,8.5s-7.9-3.8-7.9-8.5s3.5-1.1,7.9-1.1S179.3,94.4,179.3,99.1z"/>
			<circle class="st6" cx="211.7" cy="92.7" r="1.3"/>
			<circle class="st6" cx="126.8" cy="86.7" r="1.3"/>
			<path class="st12" d="M201.2,79.1c0,2.4-4.3-1.2-9.6-1.2s-9.5,3.6-9.5,1.2s4.3-5.5,9.6-5.5C197,73.5,201.2,76.7,201.2,79.1z"/>
			<path class="st12" d="M162.7,79.1c0,2.4-4.3-1.2-9.6-1.2s-9.5,3.6-9.5,1.2s4.3-5.5,9.6-5.5C158.5,73.5,162.7,76.7,162.7,79.1z"/>
		</g>
	</g>
</g>
<g id="DESIGNED_BY_FREEPIK" class="st0">
</g>
</svg>
